HIERARCHY
ROOT Hips
{
	OFFSET	0.00	0.00	0.00
	CHANNELS 6 Xposition Yposition Zposition Zrotation Xrotation Yrotation
	JOINT LeftUpLeg
	{
		OFFSET	 0.126116	-0.065224	 0.014019
		CHANNELS 3 Zrotation Xrotation Yrotation
		JOINT LeftLeg
		{
			OFFSET	 0.000000	 0.569914	 0.000000
			CHANNELS 3 Zrotation Xrotation Yrotation
			JOINT LeftFoot
			{
				OFFSET	 0.000000	 0.544423	 0.000000
				CHANNELS 3 Zrotation Xrotation Yrotation
				JOINT LeftToeBase
				{
					OFFSET	 0.000000	 0.207117	 0.000000
					CHANNELS 3 Zrotation Xrotation Yrotation
					End Site
					{
						OFFSET	 0.000000	 0.207117	 0.000000
					}
				}
			}
		}
	}
	JOINT RightUpLeg
	{
		OFFSET	-0.124023	-0.065224	 0.008373
		CHANNELS 3 Zrotation Xrotation Yrotation
		JOINT RightLeg
		{
			OFFSET	 0.000000	 0.570047	 0.000000
			CHANNELS 3 Zrotation Xrotation Yrotation
			JOINT RightFoot
			{
				OFFSET	 0.000000	 0.544354	 0.000000
				CHANNELS 3 Zrotation Xrotation Yrotation
				JOINT RightToeBase
				{
					OFFSET	 0.000000	 0.207540	 0.000000
					CHANNELS 3 Zrotation Xrotation Yrotation
					End Site
					{
						OFFSET	 0.000000	 0.207540	 0.000000
					}
				}
			}
		}
	}
	JOINT Spine
	{
		OFFSET	 0.000184	 0.117403	 0.007763
		CHANNELS 3 Zrotation Xrotation Yrotation
		JOINT Spine1
		{
			OFFSET	 0.000000	 0.137269	 0.000000
			CHANNELS 3 Zrotation Xrotation Yrotation
			JOINT Spine2
			{
				OFFSET	 0.000000	 0.156879	 0.000000
				CHANNELS 3 Zrotation Xrotation Yrotation
				JOINT LeftShoulder
				{
					OFFSET	 0.080501	 0.160143	 0.002496
					CHANNELS 3 Zrotation Xrotation Yrotation
					JOINT LeftArm
					{
						OFFSET	 0.000000	 0.164363	 0.000000
						CHANNELS 3 Zrotation Xrotation Yrotation
						JOINT LeftForeArm
						{
							OFFSET	 0.000000	 0.364576	 0.000000
							CHANNELS 3 Zrotation Xrotation Yrotation
							JOINT LeftHand
							{
								OFFSET	 0.000000	 0.360812	 0.000000
								CHANNELS 3 Zrotation Xrotation Yrotation
								JOINT LeftHandIndex1
								{
									OFFSET	 0.000000	 0.086006	 0.000000
									CHANNELS 3 Zrotation Xrotation Yrotation
									JOINT LeftHandIndex2
									{
										OFFSET	 0.000000	 0.047237	 0.000000
										CHANNELS 3 Zrotation Xrotation Yrotation
										JOINT LeftHandIndex3
										{
											OFFSET	-0.004284	 0.038165	 0.000551
											CHANNELS 3 Zrotation Xrotation Yrotation
											End Site
											{
												OFFSET	-0.004284	 0.038165	 0.000551
											}
										}
									}
								}
							}
						}
					}
				}
				JOINT Neck
				{
					OFFSET	 0.000000	 0.176489	 0.000000
					CHANNELS 3 Zrotation Xrotation Yrotation
					JOINT Head
					{
						OFFSET	 0.000000	 0.077941	 0.001747
						CHANNELS 3 Zrotation Xrotation Yrotation
						End Site
						{
							OFFSET	 0.000000	 0.077941	 0.001747
						}
					}
				}
				JOINT RightShoulder
				{
					OFFSET	-0.080363	 0.159706	-0.000306
					CHANNELS 3 Zrotation Xrotation Yrotation
					JOINT RightArm
					{
						OFFSET	 0.000000	 0.164196	 0.000000
						CHANNELS 3 Zrotation Xrotation Yrotation
						JOINT RightForeArm
						{
							OFFSET	 0.000000	 0.365611	 0.000000
							CHANNELS 3 Zrotation Xrotation Yrotation
							JOINT RightHand
							{
								OFFSET	 0.000000	 0.360648	 0.000000
								CHANNELS 3 Zrotation Xrotation Yrotation
								JOINT RightHandIndex1
								{
									OFFSET	 0.000000	 0.069977	 0.000000
									CHANNELS 3 Zrotation Xrotation Yrotation
									JOINT RightHandIndex2
									{
										OFFSET	 0.000000	 0.052305	 0.000000
										CHANNELS 3 Zrotation Xrotation Yrotation
										JOINT RightHandIndex3
										{
											OFFSET	 0.009002	 0.042196	 0.000782
											CHANNELS 3 Zrotation Xrotation Yrotation
											End Site
											{
												OFFSET	 0.009002	 0.042196	 0.000782
											}
										}
									}
								}
							}
						}
					}
				}
			}
		}
	}
}
MOTION
Frames:    5
Frame Time: 0.03333334
-0.045475	 1.234373	-1.246580	-3.446302	 1.460286	-174.118800	 174.774400	 7.981351	-15.832430	 4.344737	-29.750270	 6.087873	 7.699028	 80.648570	-0.257599	 1.512287	 31.240310	-2.811662	 167.597800	 27.242070	 20.067750	-5.811201	-53.400770	 6.296806	 4.228390	 70.072110	-3.439920	-1.668530	 33.137300	 2.886185	-1.478100	 8.628094	-0.637170	-0.629313	 3.792688	 0.337033	 0.813645	-4.211576	-4.037587	-121.358900	 7.423558	 94.035520	 9.476669	 41.152430	 2.649214	 26.404450	-1.318240	 0.225416	 8.140079	 3.870133	 9.251363	 4.624177	 18.856530	-1.654968	-5.863953	 21.470840	 2.373669	 5.331528	 4.340008	-0.169039	-0.168371	-5.009586	-0.144698	-2.100556	-2.061487	-3.955444	 118.423900	-0.013294	-90.826350	-1.946950	 48.591220	-3.847610	-4.980887	-0.195728	 0.050010	-4.626025	 12.358830	-4.397510	-2.438165	 25.992480	 1.336381	 15.855080	 44.981340	-11.843920	-8.529009	 23.990480	-1.227679
-0.044752	 1.232356	-1.257515	-3.256781	 0.393388	-173.868200	 174.958500	 8.864617	-15.592130	 4.466853	-30.437870	 6.418596	 9.416627	 81.272580	-2.080755	 1.531334	 31.476840	-2.820652	 167.603400	 25.574490	 20.900610	-6.098972	-54.264070	 6.275906	 12.981410	 78.003160	-10.005060	-1.676834	 33.236500	 2.890344	-1.294290	 7.615256	-0.716749	-1.819745	-4.101388	 0.410284	 1.375363	-0.583431	-4.137632	-121.352800	 7.660278	 94.153080	 16.283210	 43.707590	-1.130378	 5.012605	-0.259062	-0.072562	 23.177920	 0.960411	 11.093770	 4.654769	 18.956840	-1.671295	-5.863687	 21.558960	 2.383397	 5.335313	 4.428646	-0.167430	-0.172701	-5.029717	-0.124785	-2.026667	-2.163884	-3.965479	 118.391000	-0.152919	-90.760840	 3.765966	 49.739420	-7.829925	-4.743659	-0.186422	 0.050898	-2.532543	 12.220650	-5.693979	-2.327640	 25.167660	 1.277541	 15.649050	 44.176380	-11.525160	-8.531878	 23.162520	-1.172609
-0.043458	 1.232614	-1.298798	-3.191567	 1.356715	-173.341200	 175.210200	 4.924568	-14.908110	 4.190625	-28.868640	 6.810668	 14.528230	 82.059030	-7.799501	 1.568833	 31.939180	-2.838560	 169.672400	 11.566320	 20.657950	-5.138065	-49.982310	 7.642366	 142.685800	 82.355920	-133.922700	-1.693117	 33.430400	 2.898536	-1.642029	 5.267606	-0.673359	-4.208989	-20.691720	 0.135683	 2.490322	 6.877004	-4.434363	-121.342400	 8.123084	 94.383010	-6.244776	 48.276280	 16.658510	 4.943059	-0.255433	-0.072826	 31.801320	-2.286141	 15.127820	 4.714704	 19.152880	-1.703401	-5.863214	 21.731210	 2.402427	 5.342703	 4.601901	-0.164301	-0.181145	-5.069069	-0.085864	-1.882204	-2.363978	-3.984793	 118.327300	-0.425966	-90.633000	 20.472350	 49.812280	-20.039630	-4.615436	-0.181392	 0.051272	 2.828307	 12.472760	-8.504850	-2.116229	 23.554360	 1.168587	 15.271540	 42.599960	-10.925210	-8.534966	 21.543380	-1.065980
-0.044393	 1.232468	-1.257297	-3.147129	 0.018232	-173.872300	 175.055900	 9.325882	-15.589390	 4.482913	-30.527520	 6.441843	 9.345825	 81.273190	-2.013591	 1.532402	 31.490070	-2.821158	 167.666900	 25.802880	 20.990290	-6.103518	-54.254860	 6.284242	 13.628070	 78.390950	-10.543130	-1.677299	 33.242050	 2.890577	-1.223106	 7.230268	-0.716977	-1.985573	-4.414780	 0.420387	 1.453280	-0.441227	-4.143136	-121.352400	 7.673529	 94.159650	 15.312400	 44.276970	-0.360660	 4.895849	-0.253018	-0.073038	 23.968710	 0.394975	 11.368290	 4.656481	 18.962450	-1.672210	-5.863673	 21.563890	 2.383941	 5.335524	 4.433603	-0.167340	-0.172943	-5.030842	-0.123671	-2.022532	-2.169564	-3.966064	 118.389200	-0.160723	-90.757190	 4.253106	 50.101720	-8.216998	-4.640256	-0.182380	 0.051149	-2.631284	 11.937530	-5.744377	-2.321507	 25.121520	 1.274314	 15.637790	 44.131330	-11.507570	-8.532011	 23.116210	-1.169540
-0.042718	 1.224610	-1.335017	-3.360207	-1.447088	-173.073500	 175.105100	 6.522636	-14.667370	 4.381454	-29.957960	 7.194661	 17.721700	 83.973020	-11.459060	 1.589485	 32.191930	-2.848539	 163.738400	 39.026280	 25.480050	-4.901628	-48.651560	 8.182853	 10.544750	 75.819760	-9.287658	-1.702048	 33.536400	 2.903050	-1.278337	 6.121272	-1.676419	-0.984222	 3.652611	 0.178115	 0.915958	-4.339164	-4.312701	-121.337400	 8.376097	 94.508780	 25.841680	 36.487790	-6.588180	 4.830070	-0.249640	-0.073345	 27.181460	 0.781132	 7.459401	 4.747548	 19.260030	-1.721060	-5.862979	 21.825370	 2.412838	 5.346741	 4.696612	-0.162600	-0.185749	-5.090585	-0.064589	-1.803223	-2.473487	-3.995078	 118.292700	-0.575288	-90.563230	 5.663188	 48.304050	-8.137155	-4.719076	-0.185481	 0.050926	-3.428398	 14.657540	-7.311847	-2.003108	 22.672030	 1.112292	 15.078430	 41.736760	-10.609340	-8.535277	 20.657990	-1.008206
